<svg id="water" xmlns="http://www.w3.org/2000/svg" width="34.818" height="34.818" viewBox="0 0 34.818 34.818">
  <path id="Path_608" data-name="Path 608" d="M34.818,24.675a3.81,3.81,0,0,0-1.124-2.711L28.2,16.473l-.019-.021-.02-.018L26.33,14.6a.68.68,0,0,0-.962.962l1.373,1.373L24.47,19.205a.68.68,0,0,0-.2.44,4.945,4.945,0,0,1-4.626,4.626.68.68,0,0,0-.44.2l-2.271,2.271-6.59-6.59,2.27-2.27a.68.68,0,0,0,.2-.44,4.953,4.953,0,0,1,4.628-4.628.68.68,0,0,0,.44-.2l2.27-2.27.861.861a.68.68,0,0,0,.962-.962L20.632,8.9h0L18.987,7.258a7.615,7.615,0,0,0-6.668-2.27c-1.038.064-1.642.082-2-.271l-.87-.87.053-.053a.68.68,0,0,0,0-.962L7.394.721A2.477,2.477,0,0,0,3.9.721L.721,3.9a2.477,2.477,0,0,0,0,3.494L2.832,9.507a.68.68,0,0,0,.481.2h0a.68.68,0,0,0,.481-.2l.053-.053.87.87c.353.353.334.957.271,2a7.615,7.615,0,0,0,2.27,6.668L8.9,20.631h0l7.533,7.533.018.019.019.018,5.492,5.492a3.832,3.832,0,0,0,6.493-2.083,3.842,3.842,0,0,0,3.154-3.154,3.84,3.84,0,0,0,3.208-3.781ZM1.683,6.433a1.118,1.118,0,0,1,0-1.571L4.861,1.683a1.118,1.118,0,0,1,1.571,0l1.631,1.63L3.313,8.064ZM6.345,12.4c.07-1.15.137-2.236-.667-3.04l-.87-.87L8.492,4.808l.87.87c.8.8,1.89.737,3.04.667A6.29,6.29,0,0,1,18.026,8.22l1.163,1.163L17.1,11.476A6.315,6.315,0,0,0,11.476,17.1L9.383,19.189,8.22,18.026A6.29,6.29,0,0,1,6.345,12.4ZM31.588,27.073a3.818,3.818,0,0,0-1.048-1.955.68.68,0,0,0-.963.96,2.474,2.474,0,1,1-3.5,3.5.68.68,0,1,0-.96.963,3.818,3.818,0,0,0,1.955,1.048,2.472,2.472,0,0,1-4.148,1.143L17.9,27.7l2.094-2.094a6.307,6.307,0,0,0,5.617-5.617L27.7,17.9l5.029,5.029a2.472,2.472,0,0,1-1.143,4.148Z" transform="translate(0 0)" fill="#1bcdfb"/>
  <path id="Path_609" data-name="Path 609" d="M216.681,210.125a.68.68,0,0,0-.962,0l-4.461,4.461a.68.68,0,1,0,.962.962l4.461-4.461A.68.68,0,0,0,216.681,210.125Z" transform="translate(-196.706 -195.65)" fill="#1bcdfb"/>
  <path id="Path_610" data-name="Path 610" d="M249.735,244.141l-4.461,4.461a.68.68,0,1,0,.962.962L250.7,245.1a.68.68,0,1,0-.962-.962Z" transform="translate(-228.409 -227.353)" fill="#1bcdfb"/>
  <path id="Path_611" data-name="Path 611" d="M337.545,181.073a.678.678,0,0,0,.96,0,.681.681,0,1,0-.964,0Z" transform="translate(-314.402 -167.674)" fill="#1bcdfb"/>
</svg>
