<svg xmlns="http://www.w3.org/2000/svg" width="34.984" height="26.543" viewBox="0 0 34.984 26.543">
  <g id="cheese_icon" data-name="cheese icon" transform="translate(0 0.001)">
    <path id="Path_657" data-name="Path 657" d="M34.984,71.2a8.632,8.632,0,0,0-4.705-7.74,14.588,14.588,0,0,0-4.628-1.674l-.127-.019L.009,70.679v0H0V80.5l.647-.166a1.973,1.973,0,1,1,0,3.822L0,83.991V88.31H34.984V71.266a.575.575,0,0,0,0-.066h0Zm-9.365-8.368a13.858,13.858,0,0,1,4.143,1.526,7.569,7.569,0,0,1,4.171,6.324H3.145Zm8.329,24.443H1.036V85.254l.1,0a3.009,3.009,0,1,0,0-6.018l-.1,0V71.718H33.948Z" transform="translate(0 -61.768)" fill="#efc90c"/>
    <path id="Path_658" data-name="Path 658" d="M277.146,233.15a2.446,2.446,0,1,0,2.446,2.446A2.449,2.449,0,0,0,277.146,233.15Zm0,3.857a1.41,1.41,0,1,1,1.41-1.41A1.412,1.412,0,0,1,277.146,237.007Z" transform="translate(-255.931 -221.44)" fill="#efc90c"/>
    <path id="Path_659" data-name="Path 659" d="M355.928,316.767a3.4,3.4,0,1,0,3.4,3.4A3.406,3.406,0,0,0,355.928,316.767Zm0,5.767a2.366,2.366,0,1,1,2.366-2.366A2.368,2.368,0,0,1,355.928,322.534Z" transform="translate(-328.439 -299.344)" fill="#efc90c"/>
    <path id="Path_660" data-name="Path 660" d="M104.335,262.325a3.16,3.16,0,1,0,3.16,3.16A3.164,3.164,0,0,0,104.335,262.325Zm0,5.284a2.124,2.124,0,1,1,2.124-2.124A2.126,2.126,0,0,1,104.335,267.609Z" transform="translate(-94.262 -248.622)" fill="#efc90c"/>
    <path id="Path_661" data-name="Path 661" d="M231.153,369.286a1.822,1.822,0,1,0,1.822,1.822A1.824,1.824,0,0,0,231.153,369.286Zm0,2.608a.786.786,0,1,1,.786-.786A.787.787,0,0,1,231.153,371.894Z" transform="translate(-213.661 -348.274)" fill="#efc90c"/>
    <path id="Path_662" data-name="Path 662" d="M42.386,221.946a1.865,1.865,0,1,0,1.865,1.865A1.867,1.867,0,0,0,42.386,221.946Zm0,2.694a.829.829,0,1,1,.829-.829A.83.83,0,0,1,42.386,224.64Z" transform="translate(-37.753 -211.002)" fill="#efc90c"/>
    <path id="Path_663" data-name="Path 663" d="M444.516,213.359V214.4h2.09v3.413h1.036v-4.45Z" transform="translate(-414.144 -203.002)" fill="#efc90c"/>
    <rect id="Rectangle_40" data-name="Rectangle 40" width="1.036" height="1.093" transform="translate(32.463 15.412)" fill="#efc90c"/>
    <rect id="Rectangle_41" data-name="Rectangle 41" width="5.617" height="1.036" transform="translate(4.057 24.005)" fill="#efc90c"/>
    <path id="Path_664" data-name="Path 664" d="M289.387,127.1c-1.409,0-2.512.807-2.512,1.836s1.1,1.836,2.512,1.836,2.512-.807,2.512-1.836S290.8,127.1,289.387,127.1Zm0,2.637c-.845,0-1.476-.422-1.476-.8s.631-.8,1.476-.8,1.476.422,1.476.8S290.232,129.734,289.387,129.734Z" transform="translate(-267.273 -122.634)" fill="#efc90c"/>
    <path id="Path_665" data-name="Path 665" d="M198.093,143.267a1.323,1.323,0,1,0,1.641,1.284A1.48,1.48,0,0,0,198.093,143.267Zm0,1.532c-.384,0-.605-.188-.605-.248s.221-.248.605-.248.605.188.605.248S198.477,144.8,198.093,144.8Z" transform="translate(-183.029 -137.699)" fill="#efc90c"/>
    <path id="Path_666" data-name="Path 666" d="M354.173,83.519c-.924,0-1.647.542-1.647,1.235s.724,1.235,1.647,1.235,1.647-.542,1.647-1.235S355.1,83.519,354.173,83.519Zm0,1.433a.827.827,0,0,1-.6-.2,1.019,1.019,0,0,1,1.209,0A.827.827,0,0,1,354.173,84.952Z" transform="translate(-328.439 -82.033)" fill="#efc90c"/>
    <path id="Path_667" data-name="Path 667" d="M442.085,134.226a1.3,1.3,0,1,0,1.5,1.284A1.407,1.407,0,0,0,442.085,134.226Zm0,1.532c-.279,0-.465-.149-.465-.248s.185-.248.465-.248.465.149.465.248S442.364,135.758,442.085,135.758Z" transform="translate(-410.479 -129.275)" fill="#efc90c"/>
    <rect id="Rectangle_42" data-name="Rectangle 42" width="2.956" height="1.036" transform="translate(10.585 24.005)" fill="#efc90c"/>
  </g>
</svg>
