<svg id="viburnum-fruit" xmlns="http://www.w3.org/2000/svg" width="34.62" height="34.623" viewBox="0 0 34.62 34.623">
  <path id="Path_614" data-name="Path 614" d="M50.058,37.927H47.173V34.465a9.784,9.784,0,0,0-3.13-7.177,11.537,11.537,0,0,1,2.925-3.924.577.577,0,0,0-.373-1.017,9.113,9.113,0,0,0-4.335.975,10.266,10.266,0,0,1,.762-1.107A13.336,13.336,0,0,1,44.66,20.48a.577.577,0,0,0-.372-1.018,9.278,9.278,0,0,0-4.107.863c-.162-1.206-.709-3.339-2.559-4.264a.577.577,0,0,0-.516,0c-1.848.924-2.4,3.053-2.559,4.26a9.268,9.268,0,0,0-4.108-.859.577.577,0,0,0-.373,1.017A13.332,13.332,0,0,1,31.7,22.216a10.277,10.277,0,0,1,.76,1.1,9.12,9.12,0,0,0-4.333-.972.577.577,0,0,0-.373,1.017,11.532,11.532,0,0,1,2.926,3.924,9.784,9.784,0,0,0-3.13,7.177v.066a5.323,5.323,0,0,0-1.929.734,1.7,1.7,0,0,1-.2.129A9.185,9.185,0,0,1,26.3,31.9h0a.577.577,0,1,0-.96-.64h0a10.123,10.123,0,0,0-1.094,4.273,1.636,1.636,0,0,1-.536-.267,5.513,5.513,0,0,0-2.5-.8A4.979,4.979,0,0,0,17.38,36.2a6.17,6.17,0,0,0-1.286,4.964l.361,2.422a12.809,12.809,0,0,0,1.48,4.375,4.965,4.965,0,0,0,4.306,2.666,4.662,4.662,0,0,0,1.259-.174l.039-.012.965-.345a.489.489,0,0,1,.333,0l.965.345.039.012a4.663,4.663,0,0,0,1.259.174,4.787,4.787,0,0,0,3.408-1.465A14.321,14.321,0,0,0,46.56,46.792,11.534,11.534,0,0,0,50.635,38.5.577.577,0,0,0,50.058,37.927ZM34.927,35.035l2.444-2.373,2.449,2.377-2.443,2.369Zm1.327,2.892h-3.3a5.736,5.736,0,0,0-.3-.688l1.441-1.4Zm4.393-2.084,2.147,2.084H38.5ZM38.2,31.857l2.442-2.371,2.451,2.38-2.443,2.369Zm.4-5.959a8.593,8.593,0,0,1,3.014,1.031l-.976.948Zm1.209,2.783-2.442,2.371-2.44-2.369,2.442-2.372Zm-5.71-.8-.984-.955A8.591,8.591,0,0,1,36.145,25.9Zm0,1.608,2.441,2.369L34.1,34.232l-2.443-2.367Zm-.832,5.548-1.26,1.224-.052-.063a4.934,4.934,0,0,0-3.041-1.673l1.91-1.855Zm-.386,8.547.361-2.422a6.974,6.974,0,0,0,0-2.08H47.07A9.491,9.491,0,0,1,43.911,44.4a10.769,10.769,0,0,1-7.125,2.759,10.576,10.576,0,0,1-4.541-1.045,13.053,13.053,0,0,0,.638-2.531Zm12.159-5.656.977-.946v.946Zm.977-2.553-2.1,2.035-2.441-2.37L43.92,32.67l2.1,2.038Zm-.129-2.4-1.141-1.108.646-.627A8.577,8.577,0,0,1,45.89,32.975Zm-1.027-2.827-.943.914-2.451-2.38,1.134-1.1a8.721,8.721,0,0,1,2.26,2.567Zm.215-6.536a11.278,11.278,0,0,0-1.967,2.909,9.821,9.821,0,0,0-1.645-.965c.007-.09.018-.18.032-.27a6.46,6.46,0,0,1,3.58-1.674ZM42.77,20.727a9.216,9.216,0,0,0-2.414,4.4,9.734,9.734,0,0,0-2.09-.426c-.068-.21-.154-.448-.264-.7a6.134,6.134,0,0,1,4.768-3.266Zm-5.406-3.485c1.43.932,1.679,3.068,1.722,3.743a7.014,7.014,0,0,0-1.723,1.82,7.137,7.137,0,0,0-.911-1.125,7.014,7.014,0,0,0-.81-.7C35.685,20.306,35.935,18.172,37.363,17.241Zm-5.405,3.487a6.146,6.146,0,0,1,5.071,3.934,9.758,9.758,0,0,0-2.658.461q-.027-.176-.067-.35l.02-.019-.032-.034A9.75,9.75,0,0,0,31.958,20.728Zm-2.31,2.884a6.449,6.449,0,0,1,3.581,1.675c.014.089.025.179.032.268a9.82,9.82,0,0,0-1.645.965A11.274,11.274,0,0,0,29.648,23.612Zm2.483,3.963,1.143,1.109-2.448,2.378-.955-.925A8.72,8.72,0,0,1,32.131,27.575Zm-2.794,3.652.66.639L28.833,33a8.582,8.582,0,0,1,.5-1.769ZM30.4,47.4a3.831,3.831,0,0,1-3.308,2.072,3.472,3.472,0,0,1-.918-.124l-.945-.338a1.651,1.651,0,0,0-1.11,0l-.946.338A3.723,3.723,0,0,1,18.942,47.4,11.658,11.658,0,0,1,17.6,43.413l-.361-2.422a5.021,5.021,0,0,1,1.019-4.041,3.841,3.841,0,0,1,2.959-1.332,4.585,4.585,0,0,1,1.807.57,2.76,2.76,0,0,0,1.136.506c-.028.459-.044.863-.053,1.172a1.721,1.721,0,0,1-.764-.354l.006.006a.577.577,0,1,0-.815.817,3.067,3.067,0,0,0,2.139.745,3.065,3.065,0,0,0,2.139-.746.577.577,0,1,0-.816-.816,1.742,1.742,0,0,1-.736.342c.01-.349.028-.757.057-1.2a2.768,2.768,0,0,0,1-.477,4.588,4.588,0,0,1,1.807-.57,3.841,3.841,0,0,1,2.959,1.332A5.022,5.022,0,0,1,32.1,40.991l-.361,2.422A11.659,11.659,0,0,1,30.4,47.4Zm15.386-1.457a13.161,13.161,0,0,1-14.54,2.291c.056-.089.11-.179.162-.272q.213-.382.4-.777a11.73,11.73,0,0,0,4.984,1.132,11.922,11.922,0,0,0,7.89-3.049,10.579,10.579,0,0,0,3.562-6.183h1.22A10.655,10.655,0,0,1,45.782,45.939Z" transform="translate(-16.015 -16)" fill="#e8c433"/>
  <circle id="Ellipse_13" data-name="Ellipse 13" cx="0.577" cy="0.577" r="0.577" transform="translate(27.696 24.235)" fill="#e8c433"/>
  <circle id="Ellipse_14" data-name="Ellipse 14" cx="0.577" cy="0.577" r="0.577" transform="translate(24.811 27.12)" fill="#e8c433"/>
  <circle id="Ellipse_15" data-name="Ellipse 15" cx="0.577" cy="0.577" r="0.577" transform="translate(21.926 25.389)" fill="#e8c433"/>
  <circle id="Ellipse_16" data-name="Ellipse 16" cx="0.577" cy="0.577" r="0.577" transform="translate(18.464 25.389)" fill="#e8c433"/>
  <circle id="Ellipse_17" data-name="Ellipse 17" cx="0.577" cy="0.577" r="0.577" transform="translate(20.195 28.851)" fill="#e8c433"/>
</svg>
