<svg xmlns="http://www.w3.org/2000/svg" width="34.817" height="34.623" viewBox="0 0 34.817 34.623">
  <path id="Path_604" data-name="Path 604" d="M34.694,16.793a3.071,3.071,0,0,0-1.947-2.257c2.413-4.026,2.747-7.8.817-9.726a4.748,4.748,0,0,0-3.549-1.253.51.51,0,0,0,.009,1.02h.01a3.715,3.715,0,0,1,2.809.954A4.3,4.3,0,0,1,33.728,9.2a13.553,13.553,0,0,1-2.062,5.15q-4.413-.084-8.855-.116A52.228,52.228,0,0,0,22.489,9a.51.51,0,0,0-.452-.45c-.152-.016-.3-.031-.457-.046a17.311,17.311,0,0,1,6.574-3.65.51.51,0,1,0-.255-.988,14.079,14.079,0,0,0-2.489.917,3.475,3.475,0,0,0-.071-2.205,1.4,1.4,0,0,0-.9-.758c-.6-.165-1.521-.078-2.548,1.272-.05.065-.1.131-.144.2l-.017-.058a2.2,2.2,0,0,0-2-1.8,1.427,1.427,0,0,0-1.111.508,3.2,3.2,0,0,0-.6,1.779A2.214,2.214,0,0,0,16.45,2.655a1.191,1.191,0,0,0-.976.545c-.656.926-.666,2.932-.056,5.034l-.458.009a11.9,11.9,0,0,0-2.736-2.29V4.836a.51.51,0,0,0,.421-.5V2.894a1.409,1.409,0,0,0-1.407-1.407H8.067A1.409,1.409,0,0,0,6.66,2.894v1.44a.51.51,0,0,0,.422.5V5.954A10.692,10.692,0,0,0,3.524,9.395a2.152,2.152,0,0,0-.281,1.213,32.8,32.8,0,0,0,.438,3.731l-.627.011a3.068,3.068,0,0,0-2.93,2.443,6.128,6.128,0,0,0,0,2.452A3.062,3.062,0,0,0,2.009,21.48c.056,1.038.152,2.515.309,4.193q-.632,1.789-1.233,3.576A2.2,2.2,0,0,0,2.157,31.9a5.547,5.547,0,0,0,1.137.425,5.591,5.591,0,0,0,5.269,3.73H26.254a5.591,5.591,0,0,0,5.269-3.73,5.558,5.558,0,0,0,1.138-.426,2.194,2.194,0,0,0,1.072-2.648q-.6-1.787-1.233-3.576c.157-1.678.253-3.154.309-4.193a3.061,3.061,0,0,0,1.884-2.234,6.129,6.129,0,0,0,0-2.452ZM21.519,9.519c.163,1.566.254,3.145.272,4.707q-5.675-.033-11.352.019c.017-1.568.108-3.153.272-4.726A54.515,54.515,0,0,1,21.519,9.519ZM16.307,3.79c.037-.052.092-.115.143-.115.367,0,1.137,1.048,1.685,2.292a.51.51,0,0,0,.973-.286,4.6,4.6,0,0,1,.282-3.08.408.408,0,0,1,.338-.154c1.176,0,1.215,2.34,1.215,2.362a.51.51,0,0,0,.977.206c.365-.825,1.392-2.452,2.243-2.216a.384.384,0,0,1,.259.224,3.706,3.706,0,0,1-.279,2.419,22.645,22.645,0,0,0-3.97,2.936q-1.841-.135-3.69-.147C15.773,6,15.94,4.308,16.307,3.79ZM11.2,5.736H8.1V4.844h3.1v.892ZM8.067,2.507h3.172a.388.388,0,0,1,.387.387v.93H7.68v-.93A.388.388,0,0,1,8.067,2.507ZM4.687,14.167a31.671,31.671,0,0,1-.426-3.623,1.136,1.136,0,0,1,.147-.64,9.907,9.907,0,0,1,3.32-3.147h3.851A11.532,11.532,0,0,1,13.6,8.288q-1.707.077-3.4.258A.51.51,0,0,0,9.741,9a52.263,52.263,0,0,0-.322,5.258q-2.349.025-4.691.064a1.161,1.161,0,0,1-.041-.153ZM3.042,21.688h.029l.686.012q-.307.824-.608,1.65C3.1,22.73,3.069,22.169,3.042,21.688ZM26.254,35.031H8.564A4.6,4.6,0,0,1,4.4,32.337a2.2,2.2,0,0,0,1.518-1.33c.294-.749.561-1.439.816-2.11a.51.51,0,1,0-.953-.363c-.254.668-.52,1.355-.813,2.1a1.167,1.167,0,0,1-1.341.718,4.52,4.52,0,0,1-1.009-.367,1.17,1.17,0,0,1-.566-1.412c1.308-3.891,2.734-7.81,4.24-11.648a1.169,1.169,0,0,1,1.341-.719,4.526,4.526,0,0,1,1.011.368,1.168,1.168,0,0,1,.565,1.412C8.352,21.533,7.441,24.1,6.5,26.63a.51.51,0,0,0,.956.356c.641-1.721,1.268-3.463,1.874-5.2,2.682.029,5.38.044,8.08.044s5.4-.015,8.08-.044c1.077,3.1,2.219,6.189,3.411,9.225a2.2,2.2,0,0,0,1.518,1.33,4.6,4.6,0,0,1-4.164,2.694ZM32.2,30.985a4.538,4.538,0,0,1-1.01.368,1.168,1.168,0,0,1-1.341-.718c-1.5-3.829-2.929-7.748-4.24-11.648a1.168,1.168,0,0,1,.565-1.412,4.535,4.535,0,0,1,1.01-.368,1.116,1.116,0,0,1,.255-.029,1.177,1.177,0,0,1,1.086.748c1.5,3.829,2.929,7.748,4.24,11.648A1.168,1.168,0,0,1,32.2,30.985ZM31.061,21.7l.685-.012h.03c-.027.481-.062,1.042-.107,1.663q-.3-.826-.608-1.65Zm2.633-2.658a2.037,2.037,0,0,1-1.5,1.566,1.988,1.988,0,0,1-.448.06h-.017l-1.046.018q-.594-1.575-1.205-3.135a2.194,2.194,0,0,0-2.523-1.339,5.556,5.556,0,0,0-1.238.451,2.194,2.194,0,0,0-1.072,2.648q.244.727.494,1.454c-5.132.053-10.324.053-15.457,0q.25-.727.494-1.453A2.193,2.193,0,0,0,9.1,16.665a5.55,5.55,0,0,0-1.238-.451,2.194,2.194,0,0,0-2.523,1.339q-.612,1.559-1.2,3.134L3.09,20.669H3.075a2,2,0,0,1-.452-.061,2.036,2.036,0,0,1-1.5-1.566,5.116,5.116,0,0,1,0-2.047,2.042,2.042,0,0,1,1.95-1.626c9.512-.183,19.158-.183,28.67,0A2.042,2.042,0,0,1,33.694,17a5.112,5.112,0,0,1,0,2.047Z" transform="translate(0 -1.428)" fill="#f04e26"/>
</svg>
