<svg xmlns="http://www.w3.org/2000/svg" width="36.62" height="34.648" viewBox="0 0 36.62 34.648">
  <g id="Icon" transform="translate(0 0)">
    <path id="Path_671" data-name="Path 671" d="M92.112,349.8a.536.536,0,0,0-.536.536v.7a.536.536,0,0,0,1.073,0v-.7A.536.536,0,0,0,92.112,349.8Z" transform="translate(-85.026 -325.771)" fill="#801919"/>
    <path id="Path_672" data-name="Path 672" d="M200.4,349.8a.536.536,0,0,0-.536.536v.7a.536.536,0,0,0,1.073,0v-.7A.536.536,0,0,0,200.4,349.8Z" transform="translate(-185.573 -325.771)" fill="#801919"/>
    <path id="Path_673" data-name="Path 673" d="M132.542,359.711a.536.536,0,0,0-.757.051,1.051,1.051,0,0,1-1.541,0,.536.536,0,0,0-.808.706,2.123,2.123,0,0,0,3.156,0A.537.537,0,0,0,132.542,359.711Z" transform="translate(-120.056 -334.848)" fill="#801919"/>
    <path id="Path_674" data-name="Path 674" d="M34.244,29.809H32.1a.536.536,0,1,0,0,1.073h2.139a1.322,1.322,0,0,1,1.278,1.562L32.8,45.923a1.8,1.8,0,0,1-1.758,1.438H23.906a1.8,1.8,0,0,1-1.758-1.438l-.414-2.049q.01-.086.019-.174c.021-.2.04-.409.057-.629.067-.88.1-1.933.107-3.242q0-.164,0-.333c0-.015,0-.029,0-.044l1.264,6.261a.742.742,0,0,0,.725.593h7.135a.742.742,0,0,0,.725-.593l1.707-8.45a.541.541,0,0,0-.526-.643H22a.536.536,0,0,0-.32.107,12.806,12.806,0,0,0-.651-2.339,14.122,14.122,0,0,0-1.484-2.8,1.3,1.3,0,0,1,1.159-.706h9.255a.536.536,0,1,0,0-1.073H20.7a2.363,2.363,0,0,0-1.825.851c-.349-.461-.707-.9-1.061-1.341-1.8-2.223-3.362-4.154-3.007-7.718a1.847,1.847,0,0,0,.262-3.473,3.107,3.107,0,0,0-.1-2.785c-.639-1.033-1.987-1.556-4.009-1.556s-3.37.524-4.009,1.556a3.107,3.107,0,0,0-.1,2.785A1.847,1.847,0,0,0,7.107,21.6C7.462,25.165,5.9,27.1,4.1,29.319a19.006,19.006,0,0,0-3.089,4.762A13.842,13.842,0,0,0,0,39.5a41.287,41.287,0,0,0,.164,4.2c.2,1.89.609,3.052,1.33,3.768a4.3,4.3,0,0,0,3.161.966H17.262a4.3,4.3,0,0,0,3.161-.966,3.465,3.465,0,0,0,.729-1.107,2.876,2.876,0,0,0,2.754,2.073h7.135a2.875,2.875,0,0,0,2.81-2.3l2.722-13.479A2.4,2.4,0,0,0,34.244,29.809Zm-1.953,7.885-1.523,7.54h-6.59l-1.523-7.54ZM7.862,15.908c.424-.685,1.495-1.048,3.1-1.048s2.673.362,3.1,1.048a2.267,2.267,0,0,1-.073,2.062H7.935A2.267,2.267,0,0,1,7.862,15.908Zm-1.045,3.91a.776.776,0,0,1,.775-.775h6.733a.775.775,0,0,1,0,1.55H7.592A.776.776,0,0,1,6.817,19.818ZM4.934,29.994c1.844-2.278,3.591-4.436,3.257-8.328h5.535c-.334,3.892,1.413,6.05,3.257,8.328a20.936,20.936,0,0,1,2.591,3.756H18.38a21.951,21.951,0,0,0-2.215-3.093,20.569,20.569,0,0,1-2.4-3.424.536.536,0,0,0-.476-.289H8.628a.536.536,0,0,0-.476.289,20.565,20.565,0,0,1-2.4,3.424A21.958,21.958,0,0,0,3.538,33.75h-1.2A20.539,20.539,0,0,1,4.934,29.994Zm12.2,3.756H4.784a24.978,24.978,0,0,1,1.8-2.417,22.751,22.751,0,0,0,2.363-3.315h4.019a22.762,22.762,0,0,0,2.363,3.315A24.949,24.949,0,0,1,17.134,33.75Zm2.533,12.957a3.2,3.2,0,0,1-2.405.654H4.655a3.2,3.2,0,0,1-2.405-.654A4.443,4.443,0,0,1,1.3,44.181H2.37a5.026,5.026,0,0,0,.406,1.465.9.9,0,0,0,.47.479,3.861,3.861,0,0,0,1.409.183H17.262a3.861,3.861,0,0,0,1.41-.183.9.9,0,0,0,.47-.479,5.026,5.026,0,0,0,.406-1.465h1.065A4.442,4.442,0,0,1,19.667,46.707ZM3.457,44.181h15a3.6,3.6,0,0,1-.275.977h0a3.864,3.864,0,0,1-.923.076H4.655a3.866,3.866,0,0,1-.923-.076h0A3.594,3.594,0,0,1,3.457,44.181Zm17.274-1.073H1.186c-.077-.946-.113-2.11-.113-3.611a12.961,12.961,0,0,1,.8-4.674H20.046c.019.051.038.1.057.154a13.344,13.344,0,0,1,.742,4.52C20.845,40.7,20.829,41.906,20.731,43.108Z" transform="translate(0 -13.787)" fill="#801919"/>
  </g>
</svg>
