<svg id="drug-medical-coronavirus-covid19-hospital" xmlns="http://www.w3.org/2000/svg" width="30.768" height="32.966" viewBox="0 0 30.768 32.966">
  <path id="Path_678" data-name="Path 678" d="M33.461,13.324a17.033,17.033,0,0,0-3.066-4.857l-.571-.632V6.4h.549a.549.549,0,0,0,.549-.549v-2.2A1.653,1.653,0,0,0,29.274,2H23.78a1.653,1.653,0,0,0-1.648,1.648v2.2a.549.549,0,0,0,.549.549h.549v1.44l-.571.632a17.014,17.014,0,0,0-4.373,11.4v3.016h-1.1V16.835a3.783,3.783,0,0,0-1.126-2.714,3.92,3.92,0,0,0-2.725-1.126.549.549,0,0,1-.544-.544v-.56h.549a.549.549,0,0,0,.549-.549v-2.2a1.653,1.653,0,0,0-1.648-1.648h-3.3A1.653,1.653,0,0,0,7.3,9.143v2.2a.549.549,0,0,0,.549.549H8.4v.566A.549.549,0,0,1,7.884,13,3.927,3.927,0,0,0,4,16.835V27.823a1.653,1.653,0,0,0,1.648,1.648h2.2v2.747a2.747,2.747,0,0,0,2.747,2.747H28.175a2.757,2.757,0,0,0,2.692-2.2h1.154a2.747,2.747,0,0,0,2.747-2.747V19.862a16.958,16.958,0,0,0-1.308-6.538ZM23.23,3.648A.549.549,0,0,1,23.78,3.1h5.494a.549.549,0,0,1,.549.549V5.3H23.23ZM28.725,6.4v1.1h-4.4V6.4ZM23.472,9.2l.549-.61h5.011l.549.61a16.04,16.04,0,0,1,2.527,3.786H20.945A16.04,16.04,0,0,1,23.472,9.2ZM8.4,9.143a.549.549,0,0,1,.549-.549h3.3a.549.549,0,0,1,.549.549v1.648H8.4ZM5.1,16.835A2.818,2.818,0,0,1,7.961,14.1a1.654,1.654,0,0,0,1.533-1.643V11.89h2.2v.56a1.654,1.654,0,0,0,1.588,1.643,2.857,2.857,0,0,1,2.005.8,2.721,2.721,0,0,1,.8,1.94v6.044h-2.2V17.934a.549.549,0,0,0-.549-.549H5.1ZM7.846,28.373h-2.2a.549.549,0,0,1-.549-.549V26.175H7.846Zm.055-3.3H5.1V18.483h7.692v4.4h-2.2a2.757,2.757,0,0,0-2.692,2.2Zm21.922,7.143a1.653,1.653,0,0,1-1.648,1.648H10.593a1.653,1.653,0,0,1-1.648-1.648V25.626a1.653,1.653,0,0,1,1.648-1.648H28.175a1.653,1.653,0,0,1,1.648,1.648Zm3.846-2.2a1.653,1.653,0,0,1-1.648,1.648h-1.1V25.626a2.705,2.705,0,0,0-.566-1.648h3.313Zm0-7.143H19.384V19.862a15.941,15.941,0,0,1,1.083-5.775h12.12a15.94,15.94,0,0,1,1.082,5.775Z" transform="translate(-4 -2)" fill="#00a1b4"/>
  <path id="Path_679" data-name="Path 679" d="M43.945,30.945h1.1a.549.549,0,0,0,.549-.549V28.2a.549.549,0,0,0-.549-.549h-1.1v-1.1A.549.549,0,0,0,43.4,26H41.2a.549.549,0,0,0-.549.549v1.1h-1.1A.549.549,0,0,0,39,28.2v2.2a.549.549,0,0,0,.549.549h1.1v1.1a.549.549,0,0,0,.549.549h2.2a.549.549,0,0,0,.549-.549Zm-.549-1.1a.549.549,0,0,0-.549.549v1.1h-1.1V30.4a.549.549,0,0,0-.549-.549H40.1v-1.1h1.1a.549.549,0,0,0,.549-.549V27.1h1.1v1.1a.549.549,0,0,0,.549.549h1.1v1.1Z" transform="translate(-19.77 -12.814)" fill="#00a1b4"/>
  <path id="Path_680" data-name="Path 680" d="M26.648,44A1.648,1.648,0,1,0,28.3,45.648,1.648,1.648,0,0,0,26.648,44Zm0,2.2a.549.549,0,1,1,.549-.549A.549.549,0,0,1,26.648,46.2Z" transform="translate(-13.462 -20.924)" fill="#00a1b4"/>
  <path id="Path_681" data-name="Path 681" d="M26.648,52A1.648,1.648,0,1,0,28.3,53.648,1.648,1.648,0,0,0,26.648,52Zm0,2.2a.549.549,0,1,1,.549-.549A.549.549,0,0,1,26.648,54.2Z" transform="translate(-13.462 -24.528)" fill="#00a1b4"/>
  <path id="Path_682" data-name="Path 682" d="M34.648,44A1.648,1.648,0,1,0,36.3,45.648,1.648,1.648,0,0,0,34.648,44Zm0,2.2a.549.549,0,1,1,.549-.549A.549.549,0,0,1,34.648,46.2Z" transform="translate(-17.066 -20.924)" fill="#00a1b4"/>
  <path id="Path_683" data-name="Path 683" d="M34.648,52A1.648,1.648,0,1,0,36.3,53.648,1.648,1.648,0,0,0,34.648,52Zm0,2.2a.549.549,0,1,1,.549-.549A.549.549,0,0,1,34.648,54.2Z" transform="translate(-17.066 -24.528)" fill="#00a1b4"/>
  <path id="Path_684" data-name="Path 684" d="M18.648,44A1.648,1.648,0,1,0,20.3,45.648,1.648,1.648,0,0,0,18.648,44Zm0,2.2a.549.549,0,1,1,.549-.549A.549.549,0,0,1,18.648,46.2Z" transform="translate(-9.857 -20.924)" fill="#00a1b4"/>
  <path id="Path_685" data-name="Path 685" d="M18.648,52A1.648,1.648,0,1,0,20.3,53.648,1.648,1.648,0,0,0,18.648,52Zm0,2.2a.549.549,0,1,1,.549-.549A.549.549,0,0,1,18.648,54.2Z" transform="translate(-9.857 -24.528)" fill="#00a1b4"/>
  <path id="Path_686" data-name="Path 686" d="M42.648,44A1.648,1.648,0,1,0,44.3,45.648,1.648,1.648,0,0,0,42.648,44Zm0,2.2a.549.549,0,1,1,.549-.549A.549.549,0,0,1,42.648,46.2Z" transform="translate(-20.671 -20.924)" fill="#00a1b4"/>
  <path id="Path_687" data-name="Path 687" d="M42.648,52A1.648,1.648,0,1,0,44.3,53.648,1.648,1.648,0,0,0,42.648,52Zm0,2.2a.549.549,0,1,1,.549-.549A.549.549,0,0,1,42.648,54.2Z" transform="translate(-20.671 -24.528)" fill="#00a1b4"/>
  <path id="Path_688" data-name="Path 688" d="M12.494,34H7.549a.549.549,0,0,0,0,1.1h4.945a.549.549,0,0,0,0-1.1Z" transform="translate(-5.352 -16.418)" fill="#00a1b4"/>
  <path id="Path_689" data-name="Path 689" d="M10.3,38H7.549a.549.549,0,0,0,0,1.1H10.3a.549.549,0,0,0,0-1.1Z" transform="translate(-5.352 -18.22)" fill="#00a1b4"/>
</svg>
