<svg xmlns="http://www.w3.org/2000/svg" width="35.447" height="35.446" viewBox="0 0 35.447 35.446">
  <path id="Path_612" data-name="Path 612" d="M49.06,42.351H47.389l.561-.561a2.363,2.363,0,1,0-3.342-3.342l-1.425,1.425a4.674,4.674,0,0,0-2.762-.423l-6.241.93.559-6.713a5.462,5.462,0,0,0,3.033.921,5.269,5.269,0,0,0,1.208-10.421,5.866,5.866,0,0,0,.066-.882,6.012,6.012,0,0,0-6.063-5.947,6.184,6.184,0,0,0-2.45.506A6.1,6.1,0,0,0,26.145,16a6.012,6.012,0,0,0-6.063,5.947,5.848,5.848,0,0,0,.412,2.155,5.271,5.271,0,0,0,.862,10.487,5.473,5.473,0,0,0,1.9-.34l.358,4.3a6.509,6.509,0,0,0-1.139-.1h-.112a3.261,3.261,0,0,0-2.108-1.756.591.591,0,1,0-.287,1.146,1.958,1.958,0,0,1,1.1.762,6.5,6.5,0,1,0,7.059,9.545l12.292,1.833a4.808,4.808,0,0,0,.71.053,4.673,4.673,0,0,0,2.349-.635l1.355,1.356a2.363,2.363,0,1,0,3.342-3.342l-.333-.333H49.06a2.363,2.363,0,0,0,0-4.726Zm-3.616-3.067a1.182,1.182,0,1,1,1.671,1.671l-1.486,1.486a5.275,5.275,0,0,0-1.375-1.86l-.059-.048ZM23.512,32.826a4.268,4.268,0,0,1-2.156.581,4.1,4.1,0,1,1,0-8.192H21.4a.591.591,0,0,0,.515-.891,4.675,4.675,0,0,1-.652-2.379,4.83,4.83,0,0,1,4.881-4.765,4.911,4.911,0,0,1,3.792,1.765.591.591,0,0,0,.73.145,4.982,4.982,0,0,1,2.319-.571,4.83,4.83,0,0,1,4.881,4.765,4.675,4.675,0,0,1-.16,1.212.591.591,0,0,0,.51.741,4.092,4.092,0,0,1-.444,8.169,4.254,4.254,0,0,1-3.113-1.348.591.591,0,0,0-1.01.274,4.917,4.917,0,0,1-9.294.776.591.591,0,0,0-.844-.283Zm-1.9,6.876a6.576,6.576,0,0,1,.277,1.7.591.591,0,1,0,1.182,0,7.628,7.628,0,0,0-.248-1.76A5.3,5.3,0,0,1,26.032,41a2.713,2.713,0,0,0-1.721,1.322.591.591,0,0,0-.045.407l.31,1.242-1.881-.752a.591.591,0,0,0-.439,0l-1.881.752.31-1.242a.591.591,0,0,0-.045-.407A2.715,2.715,0,0,0,18.92,41a5.3,5.3,0,0,1,2.688-1.3Zm.868,10.562a5.313,5.313,0,0,1-4.433-8.247,2.187,2.187,0,0,1,1.437.664L18.949,44.8a.591.591,0,0,0,.792.692L22.476,44.4l2.734,1.094A.591.591,0,0,0,26,44.8l-.531-2.123a1.707,1.707,0,0,1,.907-.555,3.356,3.356,0,0,1,.53-.109,5.313,5.313,0,0,1-4.433,8.247Zm5.391-8.941a6.534,6.534,0,0,0-3.039-2.433l-.284-3.409a6.034,6.034,0,0,0,2.115,1.377l-.018.006.587,1.76v0l0,.01h0a.591.591,0,1,0,1.12-.374h0L28,37.2a6.265,6.265,0,0,0,.88.063,6.158,6.158,0,0,0,1.078-.1L29.6,38.261h0a.591.591,0,1,0,1.12.374h0l0-.01v0l.587-1.76h0a.59.59,0,0,0,.024-.105,5.991,5.991,0,0,0,2.092-1.5l-.442,5.3Zm15.615,6.631a3.563,3.563,0,0,1-2.886.858l-3.942-.588V45.537h0a.591.591,0,0,0-1.182,0h0v2.509l-6.84-1.02a6.5,6.5,0,0,0-.167-4.6l2.28-.34v4.04a.591.591,0,1,0,1.182,0V41.911L40.2,40.678v3.677a.591.591,0,1,0,1.181,0V40.588a3.607,3.607,0,0,1,2.1.888,4.357,4.357,0,0,1,0,6.477Zm3.86,1.964a1.182,1.182,0,0,1-1.671,0l-1.235-1.235a5.312,5.312,0,0,0,1.323-2.019l1.583,1.583a1.183,1.183,0,0,1,0,1.671ZM49.06,45.9h-2.4l-.588-.588a5.653,5.653,0,0,0-.057-1.585l.19-.19H49.06a1.182,1.182,0,1,1,0,2.363Z" transform="translate(-15.976 -15.999)" fill="#d21958"/>
</svg>
